<?xml version="1.0" standalone="no"?>
<!DOCTYPE svg PUBLIC "-//W3C//DTD SVG 20010904//EN"
 "http://www.w3.org/TR/2001/REC-SVG-20010904/DTD/svg10.dtd">
<svg version="1.0" xmlns="http://www.w3.org/2000/svg"
 width="50.000000pt" height="50.000000pt" viewBox="0 0 50.000000 50.000000"
 preserveAspectRatio="xMidYMid meet">

<g transform="translate(0.000000,50.000000) scale(0.100000,-0.100000)"
fill="#000000" stroke="none">
<path d="M170 469 c-104 -44 -158 -163 -116 -262 15 -37 173 -187 196 -187 23
0 181 150 196 187 34 81 2 185 -74 238 -36 24 -54 30 -110 32 -37 2 -78 -2
-92 -8z m74 -121 c13 -18 16 -19 16 -6 0 22 37 33 55 18 8 -7 15 -20 15 -29 0
-12 8 -17 28 -16 21 0 28 -5 30 -23 5 -30 -14 -52 -44 -52 -19 0 -24 -5 -24
-24 0 -38 -24 -45 -117 -37 -19 2 -16 61 4 83 18 20 73 24 91 6 9 -9 12 -8 12
5 0 11 -8 17 -25 17 -14 0 -25 5 -25 12 0 9 -3 9 -12 0 -7 -7 -19 -12 -28 -12
-8 0 -20 -10 -25 -22 -20 -46 -80 -26 -73 24 2 18 9 23 31 23 18 -1 27 4 27
15 0 19 19 40 36 40 7 0 20 -10 28 -22z"/>
</g>
</svg>
